<?xml version="1.0" encoding="utf-8"?>
<!-- Generator: Adobe Illustrator 23.1.0, SVG Export Plug-In . SVG Version: 6.00 Build 0)  -->
<svg version="1.1" id="b228be49-dc23-464c-a8cf-3e9c62c82d0d"
	 xmlns="http://www.w3.org/2000/svg" xmlns:xlink="http://www.w3.org/1999/xlink" x="0px" y="0px" viewBox="0 0 120 85.3"
	 style="enable-background:new 0 0 120 85.3;" xml:space="preserve">
<style type="text/css">
	.st0{fill:#FFFFFF;}
</style>
<title>Equitable_logo_holdings_stack_small_reverse_rgb-white</title>
<path class="st0" d="M2.2,65.3h7v1.9H0V53.6h8.8v1.9H2.2v3.9h5.7v1.9H2.2V65.3z M112.8,61.3h5.8v-1.9h-5.8v-3.9h6.7v-1.9h-8.9v13.6
	h9.4v-1.9h-7.2L112.8,61.3z M62.6,12.4c0-0.1-0.1-0.6-0.2-1.1c0-0.2,0-0.5,0.2-0.5c0.4,0.5,0.9,0.9,1.1,1.2c0.2,0.2,0.2,0.4-0.1,0.6
	c-0.2,0.1-0.4,0.2-0.6,0.2C62.7,12.7,62.6,12.6,62.6,12.4L62.6,12.4z M61.5,15.9C61.5,15.9,61.5,15.9,61.5,15.9
	C61.5,15.9,61.5,16,61.5,15.9c-0.6,0.1-2.8-0.2-3.2-1.9c0-0.2-0.1-0.4-0.2-0.6c0,0-0.1,0-0.1,0.2c0,0.2,0,0.3-0.2,0.4
	c-0.2,0.1-0.8,0-1.4-0.9c-0.5-0.9-0.1-1.1,0-1.1c0.3-0.1,0.6,0.1,0.7,0.4c0,0,0,0,0,0.1c0.1,0.4,0.7,0.6,0.6-0.4
	c-0.1-0.5,0-1,0.4-1.3c0.5-0.4,1.1-0.6,0.9-0.7l0,0c-0.4-0.2-0.9-0.3-1.3-0.3c-1.3,0.1-2.4,0.7-3.1,1.8c-0.1,0.2-0.4,0.3-0.6,0.3
	c0,0,0,0,0,0c0,0,0,0,0,0c2.2-3.3,4.6-4.7,6.1-4.7c0.4,0,0.7,0.1,0.9,0.4c0,0,0,0,0,0c0,0,0,0,0,0c-0.7,0.1-1.3,0.2-2,0.5
	c-0.6,0.2-1.2,0.6-1.7,1c0,0,0,0,0,0c0.1,0.2,0.3,0.2,0.5,0.2c0.2,0,0.4-0.1,0.6-0.1c2.3-1,2.5-1.1,2.7-0.6c0.4,0.7,0.6,0.9,0.1,1.3
	c-0.6,0.4-1.7,0.6-0.6,1.5c0.5,0.5,1.2,0.6,1.1,1.7C61.7,13.9,60.1,14.3,61.5,15.9L61.5,15.9z M53.3,12.7c0.1,0.4,0.5,0.8,1,0.8
	c0.5,0,0.7-0.2,1.1-0.2c-0.3,0.7-1.1,1.1-1.8,0.8c-0.3-0.1-0.6-0.4-0.8-0.7C52.9,13.1,53.1,12.9,53.3,12.7L53.3,12.7z M52.6,11.9
	c-1,1.6-2.6-0.2-1.3-0.7C51.6,11.6,52.1,11.8,52.6,11.9L52.6,11.9z M58.3,20.1c-0.1,0-2.9-1-5.7,2.4c-1.7-0.2-2.3-1.2-2.5-1.7
	c0.5-0.2,3.6-1.2,4.4-2.1c1-1.2,1.5-3.8,1.5-3.8c0-0.2,0.2-0.3,0.3-0.3c0.4,0,0.7,0.3,0.9,0.6C58.1,16.3,57.2,17.3,58.3,20.1z
	 M64.8,13.6c0.2,0.3,0.2,0.8,0,1.1c0.1,0.2,0.1,0.3,0.1,0.5c0,0.2-0.1,0.5-0.3,0.7c0,0,0,0.1,0,0.1c0.3,0.6,0.1,1.4-0.5,1.8
	c-0.5,0.3-1.2,0.5-1.8,0.5c-0.6,0-1.5-0.1-1.5-0.1l0,0c-0.1,0.6-0.1,1.2,0.1,1.8c-0.4-0.8-0.6-1.7-0.6-2.5c0.6,0.1,1.4,0.1,1.9,0.2
	c0.5,0.1,1-0.1,1.5-0.4c0.3-0.2,0.4-0.6,0.3-0.9c0,0,0,0,0,0c-0.2-0.3-0.2-0.6,0.1-0.9c0.2-0.1,0.1-0.4-0.1-0.5
	c-0.2-0.1-0.2-0.2,0-0.4c0.3-0.3,0.3-0.4,0.1-0.7c-0.1-0.1-0.1-0.2-0.1-0.3c0-0.2,0-0.3,0.2-0.3c0.4-0.1,0.7-0.4,0.7-0.8
	c0-0.1-0.1-0.3-0.2-0.4c-0.4-0.5-0.8-1-1.3-1.5c-0.2-0.2-0.2-0.5-0.1-0.8c0.1-0.2,0.1-0.4,0-0.6c-0.2-0.7-0.5-1.3-0.9-1.9
	c0-0.1-0.1-0.2-0.1-0.2c0.3-0.7-0.6-2.1-1.9-2.1c-0.2,0-0.4,0-0.6-0.1c-0.5-0.3-1.2-0.6-2.9-0.6c-0.8,0-1.6,0.1-2.4,0.4
	c-1.3,0.5-2.4,1.8-1.9,3c0-0.2,0.7-2.4,2.8-2.2c-0.4,0.3-0.6,0.8-0.6,1.3c0,0.2,0.2,0.4,0.4,0.4c0.2,0,0.3-0.1,0.4-0.3
	c0.6-1.4,1.3-0.9,1.4-0.9c0,0-0.8,0.3-0.5,1.4c0,0.1,0,0.3-0.2,0.3c0,0-0.1,0-0.1,0c-0.5,0-0.3-0.3-1.3,0.7
	c-0.6,0.5-1.4,0.4-1.9-0.2c0,0-0.1-0.1-0.1-0.1c-0.2,0.2-0.3,0.4-0.4,0.6c-0.5,1.4,1,1.3,1,1.3c-0.2,0.3-0.4,0.6-0.6,0.9
	c-0.8,0.1-1.6-0.6-1.6-1.4c0-0.2,0-0.5,0.1-0.7c-0.5,0.3-0.8,1-0.6,1.6c-2.4,1.2-0.9,3.3,0.7,3.4c0-0.1-0.1,2,1.4,2
	c0.6,0,0.5-0.3,1.4-0.2c-0.4,0.5-1,0.8-1.6,0.8c-1.1,0-2-0.9-2-2c-0.5-0.2-1-0.5-1.4-0.9h0c-0.2-0.2-1.5-2,0.7-3.4
	C50,7.2,51.9,6.5,52,6.4C53.3,2.5,58.9,3,60.4,4c3.1,0.4,2.8,2.7,2.8,2.8c0.4,0.6,0.7,1.3,0.9,2c0.1,0.4,0,0.7-0.1,1.1
	c1.3,1.6,1.6,1.8,1.6,2.3C65.5,12.8,65.2,13.3,64.8,13.6L64.8,13.6z M60,41.2c-11.4,0-20.6-9.2-20.6-20.6S48.6,0,60,0
	s20.6,9.2,20.6,20.6C80.6,31.9,71.4,41.2,60,41.2L60,41.2z M69.5,37.8c3.2-1.8,5.8-4.4,7.6-7.5C71.8,22.4,64.4,30,69.5,37.8
	L69.5,37.8z M57.9,24.6c0,0,0-0.1,0-0.1c0,0-0.1,0-0.1,0l0,0c-2,1.3-4.3,5.6-5.4,14.2c0.7,0.3,1.3,0.5,2,0.7
	C54.5,30.3,56.6,26.7,57.9,24.6L57.9,24.6z M64.2,39.8c1.3-0.3,2.6-0.7,3.8-1.2c-5.3-9,3.7-17.4,9.5-9c0.4-0.8,0.7-1.6,1-2.4
	C69.4,15,57.4,26.2,64.2,39.8L64.2,39.8z M60,0.9c-10.8,0-19.6,8.8-19.7,19.6c0,3.8,1.1,7.5,3.2,10.7c1-3,2.5-6.8,3-8.1
	c0.4-0.9,1.2-1.6,2.2-1.9c0.6,1.2,1.8,2,3.2,2.1c-0.5,0.7-0.9,1.4-1.2,2.2c-0.6,1.4-1.4,2.8-2.2,4.1c-0.3,0.4-0.7,0.7-1.2,0.7
	c-1.1-0.6-0.9-2.4-1.2-3c0-0.1-0.2-0.2-0.3-0.2c-0.1,0-0.1,0-0.1,0.1c-0.2,0.2,0,1.3,0,2.2c-0.2,1.1-0.6,2.2-1.1,3.3
	c1.6,2,3.5,3.7,5.7,4.9c0.4-2.4,0.9-4.7,1.6-7l0,0c0,0,0,0,0,0c0,0,0-0.1-0.1-0.1c0,0,0,0,0,0l0,0C51,32.3,50,33.9,49,35.5
	c-0.1,0.1-0.4,0-0.6-0.5c-0.1-0.5-0.2-0.7-0.5-0.7c-0.7,0-1.3-0.5-1.4-1.1c-0.1-0.3,0.1-0.7,0.4-0.8c0,0,0,0,0,0
	c0.2,0,0.4-0.1,0.6-0.1c1.3-0.4,1.8-1,2.5-2.2c0.7-1.2,1.4-3.2,2.4-5c1.1-1.9,2.2-3.6,3.4-4.1c2.2-0.9,3.3,0.1,3.6,0.4
	c-2.3-0.1-3.6,1.5-4.7,3.3l0,0c0,0.1,0,0.1,0,0.2c0,0,0.1,0,0.2,0l0,0c0.9-0.9,2.8-2.3,6-2.2c-5.8,7.1-3.1,15.3-2.2,17.6
	c0.4,0,0.9,0,1.3,0c0.7,0,1.4,0,2.1-0.1c-7.2-16.4,8.4-25.6,16.7-13.7c0.2-0.5,0.3-1.1,0.4-1.6C72.7,15,62.8,21,62.3,21.5
	c0.1-0.6,0.4-1.2,1-1.5c2.5-1.4,5.3-1.9,8.1-1.5c2.9,0.4,5.8,2.2,8,5.4c1.9-10.7-5.3-20.8-16-22.7C62.3,1,61.1,0.9,60,0.9L60,0.9z
	 M27.9,67.8l0.7-0.3l-1.6,2.2l-0.1,0c-0.3,0.1-0.6,0.1-0.9,0.1c-1.4,0-2.7-0.4-3.9-1c-1.1-0.5-2-1-2.7-1.3l-0.2-0.1l0,0
	c-3.3-0.3-6.6-2.8-6.6-7c0-4.4,3.8-7,7.4-7c3.6,0,7.4,2.6,7.4,7c0.1,3-1.9,5.6-4.7,6.5l-0.2,0l0.2,0.1c0.3,0.1,0.6,0.2,0.9,0.4
	C25.3,68.2,26.6,68.3,27.9,67.8L27.9,67.8z M25.1,60.4c0-2.8-2.3-5.1-5.1-5.1c0,0-0.1,0-0.1,0c-2.8,0-5.2,2.3-5.2,5.1
	c0,2.8,2.3,5.2,5.1,5.2c0,0,0.1,0,0.1,0C22.7,65.6,25.1,63.4,25.1,60.4C25.1,60.5,25.1,60.5,25.1,60.4L25.1,60.4z M37.4,65.5
	c-2.2,0-3.5-1.2-3.5-3.3v-8.6h-2.2v8.8c0,3,2.3,5.1,5.7,5.1c3.4,0,5.7-2,5.7-5.1v-8.8h-2.1v8.6C40.9,64.3,39.7,65.5,37.4,65.5
	L37.4,65.5z M50.9,53.6h-2.2v13.6h2.2V53.6z M60.4,67.2h2.2V55.5h4.5v-1.9H55.8v1.9h4.5L60.4,67.2z M28.5,76.9v3.5h4.3v-3.5h1.6v8.3
	h-1.6v-3.5h-4.3v3.5h-1.6v-8.3L28.5,76.9z M40.7,76.8c0.8,0,1.6,0.2,2.3,0.5c2.1,1.1,2.8,3.6,1.8,5.6c-0.4,0.8-1,1.4-1.8,1.8
	c-1.5,0.7-3.2,0.7-4.7,0C37,84,36.1,82.6,36.1,81c0-0.8,0.2-1.5,0.6-2.1c0.4-0.7,0.9-1.2,1.6-1.6C39.1,77,39.9,76.8,40.7,76.8
	L40.7,76.8z M37.8,81c0,0.5,0.1,1,0.4,1.5c0.2,0.4,0.6,0.8,1,1c0.5,0.2,1,0.4,1.5,0.4c0.8,0,1.5-0.3,2.1-0.8
	c0.6-0.5,0.8-1.3,0.8-2.1c0-0.5-0.1-1-0.4-1.5c-0.2-0.4-0.6-0.8-1-1c-1-0.5-2.1-0.5-3,0c-0.4,0.2-0.8,0.6-1,1
	C37.9,80,37.8,80.5,37.8,81L37.8,81z M48.9,76.9v7h4v1.3h-5.6v-8.3L48.9,76.9z M58.3,76.9c0.8,0,1.6,0.2,2.3,0.5
	c0.7,0.3,1.2,0.8,1.6,1.5c0.4,0.7,0.6,1.4,0.6,2.1c0,0.8-0.2,1.5-0.6,2.2c-0.4,0.6-0.9,1.1-1.6,1.5c-0.7,0.4-1.5,0.5-2.4,0.5h-3.4
	v-8.3L58.3,76.9z M58.1,83.9c0.8,0,1.6-0.3,2.1-0.8c1.1-1.2,1.1-3,0-4.2c-0.6-0.5-1.4-0.8-2.2-0.8h-1.6v5.8H58.1z M66.4,76.9v8.3
	h-1.6v-8.3L66.4,76.9z M70,76.9l4.9,5.8v-5.8h1.6v8.3h-1.4l-4.9-5.9v5.9h-1.6v-8.3L70,76.9z M82.7,76.8c1,0,2.1,0.2,3,0.7v1.5
	c-0.9-0.5-1.9-0.7-3-0.8c-0.6,0-1.1,0.1-1.6,0.4c-0.5,0.2-0.8,0.6-1.1,1c-0.3,0.5-0.4,1-0.4,1.5c0,0.8,0.3,1.5,0.8,2
	c0.6,0.5,1.4,0.8,2.2,0.8c0.2,0,0.5,0,0.7-0.1c0.3-0.1,0.6-0.1,0.8-0.2v-1.4H83V81h3v3.4c-0.4,0.3-0.9,0.5-1.5,0.7
	c-0.6,0.2-1.2,0.2-1.8,0.2c-0.8,0-1.6-0.2-2.4-0.5c-1.4-0.7-2.3-2.1-2.3-3.7c0-0.8,0.2-1.5,0.6-2.2c0.4-0.7,1-1.2,1.7-1.5
	C81.1,77,81.9,76.8,82.7,76.8L82.7,76.8z M90.4,76.8c0.8,0,1.6,0.2,2.3,0.6v1.4c-0.7-0.5-1.5-0.7-2.3-0.8c-0.3,0-0.7,0.1-0.9,0.2
	c-0.2,0.1-0.3,0.4-0.3,0.6c0,0.3,0.2,0.6,0.6,0.9c0.1,0.1,0.6,0.3,1.4,0.7c0.6,0.2,1.1,0.6,1.5,1.1c0.3,0.4,0.5,0.9,0.5,1.4
	c0,0.7-0.3,1.3-0.8,1.7c-0.6,0.5-1.3,0.7-2,0.7c-0.5,0-0.9,0-1.4-0.2c-0.5-0.1-0.9-0.4-1.3-0.6v-1.6c0.7,0.6,1.6,1,2.5,1.1
	c0.3,0,0.7-0.1,0.9-0.3c0.2-0.1,0.4-0.4,0.4-0.7c0-0.4-0.3-0.8-0.6-0.9c-0.3-0.2-0.8-0.4-1.3-0.7c-0.6-0.2-1.1-0.6-1.5-1
	c-0.3-0.4-0.5-0.9-0.5-1.4c0-0.6,0.3-1.3,0.8-1.7C88.9,77,89.6,76.8,90.4,76.8L90.4,76.8z M75.4,53.4l5.9,13.8H79l-1.5-3.5l0,0h-5.3
	l-1.5,3.6h-2.2l5.9-13.8L75.4,53.4z M76.7,61.9c-1.6-3.8-1.5-3.6-1.8-4.6c-0.2,0.7-0.2,0.5-1.9,4.6H76.7z M94.2,63
	c0,2.7-2.3,4.2-4.6,4.2h-4.5V53.6h3.8c1.9,0,4,1.3,4,3.6c0,0.9-0.4,1.8-1.1,2.3C93.3,60.1,94.2,61.5,94.2,63L94.2,63z M87.2,58.9
	h1.5c1,0,2-0.4,2-1.7c0-1.3-1.1-1.8-2.1-1.8h-1.4V58.9z M92.1,63c0-1.6-1.4-2.4-2.8-2.4h-2v4.7h2.1C90.7,65.4,92.1,64.7,92.1,63
	L92.1,63z M101,53.6h-2.2v13.6h8.4v-1.9H101L101,53.6z"/>
</svg>
